<svg width="54" height="54" viewBox="0 0 54 54" fill="none" xmlns="http://www.w3.org/2000/svg">
<circle cx="27" cy="27" r="26" stroke="#FA2F58" stroke-width="2"/>
<rect x="13.0791" y="13.0792" width="28.1287" height="28.1287" rx="6" fill="url(#paint0_radial_73_29)"/>
<rect x="13.0791" y="13.0792" width="28.1287" height="28.1287" rx="6" fill="black"/>
<path d="M34.1757 21.6183C34.1757 22.4505 33.501 23.1252 32.6688 23.1252C31.8366 23.1252 31.1619 22.4505 31.1619 21.6183C31.1619 20.786 31.8366 20.1114 32.6688 20.1114C33.501 20.1114 34.1757 20.786 34.1757 21.6183Z" fill="white"/>
<path fill-rule="evenodd" clip-rule="evenodd" d="M27.1435 32.1666C29.9176 32.1666 32.1665 29.9177 32.1665 27.1436C32.1665 24.3695 29.9176 22.1206 27.1435 22.1206C24.3694 22.1206 22.1205 24.3694 22.1205 27.1436C22.1205 29.9177 24.3694 32.1666 27.1435 32.1666ZM27.1435 30.1574C28.808 30.1574 30.1573 28.808 30.1573 27.1436C30.1573 25.4791 28.808 24.1298 27.1435 24.1298C25.479 24.1298 24.1297 25.4791 24.1297 27.1436C24.1297 28.808 25.479 30.1574 27.1435 30.1574Z" fill="white"/>
<path fill-rule="evenodd" clip-rule="evenodd" d="M17.0975 26.7417C17.0975 23.366 17.0975 21.6781 17.7545 20.3887C18.3324 19.2546 19.2545 18.3324 20.3887 17.7546C21.678 17.0976 23.3659 17.0976 26.7417 17.0976L27.5453 17.0976C30.9211 17.0976 32.609 17.0976 33.8984 17.7546C35.0325 18.3325 35.9546 19.2546 36.5325 20.3887C37.1895 21.6781 37.1895 23.366 37.1895 26.7417L37.1895 27.5454C37.1895 30.9212 37.1895 32.6091 36.5325 33.8984C35.9546 35.0326 35.0325 35.9547 33.8984 36.5326C32.609 37.1895 30.9211 37.1895 27.5453 37.1895L26.7417 37.1895C23.3659 37.1895 21.678 37.1895 20.3886 36.5326C19.2545 35.9547 18.3324 35.0326 17.7545 33.8984C17.0975 32.609 17.0975 30.9212 17.0975 27.5454L17.0975 26.7417ZM26.7417 19.1068L27.5453 19.1068C29.2664 19.1068 30.4363 19.1084 31.3406 19.1822C32.2215 19.2542 32.672 19.3847 32.9862 19.5448C33.7423 19.93 34.357 20.5448 34.7423 21.3009C34.9024 21.6151 35.0329 22.0656 35.1048 22.9464C35.1787 23.8508 35.1803 25.0207 35.1803 26.7417L35.1803 27.5454C35.1803 29.2664 35.1787 30.4364 35.1048 31.3407C35.0329 32.2216 34.9024 32.672 34.7423 32.9863C34.357 33.7424 33.7423 34.3571 32.9862 34.7424C32.672 34.9025 32.2215 35.0329 31.3406 35.1049C30.4363 35.1788 29.2664 35.1803 27.5453 35.1803L26.7417 35.1803C25.0206 35.1803 23.8507 35.1788 22.9464 35.1049C22.0655 35.0329 21.615 34.9025 21.3008 34.7424C20.5447 34.3571 19.93 33.7424 19.5447 32.9863C19.3846 32.672 19.2541 32.2216 19.1822 31.3407C19.1083 30.4364 19.1067 29.2664 19.1067 27.5454L19.1067 26.7417C19.1067 25.0207 19.1083 23.8508 19.1822 22.9464C19.2541 22.0656 19.3846 21.6151 19.5447 21.3009C19.93 20.5448 20.5447 19.93 21.3008 19.5448C21.615 19.3847 22.0655 19.2542 22.9464 19.1822C23.8507 19.1084 25.0206 19.1068 26.7417 19.1068Z" fill="white"/>
<defs>
<radialGradient id="paint0_radial_73_29" cx="0" cy="0" r="1" gradientUnits="userSpaceOnUse" gradientTransform="translate(23.1251 34.1758) rotate(-55.3758) scale(25.6369)">
<stop stop-color="#B13589"/>
<stop offset="0.79309" stop-color="#C62F94"/>
<stop offset="1" stop-color="#8A3AC8"/>
</radialGradient>
</defs>
</svg>
