<svg width="54" height="54" viewBox="0 0 54 54" fill="none" xmlns="http://www.w3.org/2000/svg">
<circle cx="27" cy="27" r="26" stroke="#FA2F58" stroke-width="2"/>
<path d="M42 26C42 34.2843 35.2843 41 27 41C23.8402 41 20.9086 40.023 18.4908 38.3546L13.3636 39.6364L14.7072 34.598C13.0012 32.1633 12 29.1986 12 26C12 17.7157 18.7157 11 27 11C35.2843 11 42 17.7157 42 26Z" fill="black"/>
<path fill-rule="evenodd" clip-rule="evenodd" d="M27 43.5C36.665 43.5 44.5 35.665 44.5 26C44.5 16.335 36.665 8.5 27 8.5C17.335 8.5 9.5 16.335 9.5 26C9.5 29.1386 10.3262 32.0842 11.7731 34.6312L9.5 43.5L18.6436 41.3797C21.1267 42.7318 23.9736 43.5 27 43.5ZM27 40.8077C35.1781 40.8077 41.8077 34.1781 41.8077 26C41.8077 17.8219 35.1781 11.1923 27 11.1923C18.8219 11.1923 12.1923 17.8219 12.1923 26C12.1923 29.1576 13.1806 32.0843 14.8648 34.4878L13.5385 39.4615L18.5999 38.1962C20.9867 39.8432 23.8807 40.8077 27 40.8077Z" fill="white"/>
<path d="M22.625 17.875C22.2089 17.0393 21.5707 17.1132 20.9258 17.1132C19.7735 17.1132 17.9766 18.4936 17.9766 21.0626C17.9766 23.168 18.9043 25.4727 22.0305 28.9203C25.0476 32.2475 29.0117 33.9686 32.3027 33.91C35.5938 33.8515 36.2709 31.0194 36.2709 30.063C36.2709 29.6391 36.0078 29.4276 35.8266 29.3701C34.7051 28.8319 32.6367 27.8291 32.166 27.6406C31.6954 27.4522 31.4496 27.7071 31.2969 27.8457C30.8701 28.2524 30.0241 29.4511 29.7344 29.7207C29.4447 29.9903 29.0129 29.8539 28.8331 29.7519C28.1718 29.4866 26.3787 28.689 24.9493 27.3034C23.1817 25.5898 23.0779 25.0003 22.7449 24.4755C22.4784 24.0557 22.674 23.7981 22.7715 23.6855C23.1524 23.2461 23.6783 22.5676 23.9141 22.2305C24.1499 21.8933 23.9627 21.3814 23.8504 21.0626C23.3672 19.6914 22.9579 18.5436 22.625 17.875Z" fill="white"/>
</svg>
